@startuml
skinparam classAttributeIconSize 0
hide empty attributes

package "Presentation" {
    class ListUsersUI <<presentation>> {
    }
}

package "Application" {
    class ListUsersController <<application>> {
        +listUsers() : Iterable<ShodroneUser>
    }

    class ShodroneUserDTOParser <<application>> {
        +transformToDTO(users)
    }
}

package "DTO" {
    class ShodroneUserDTO <<dto>> {
    }
}

package "Domain" {

    package "<<aggregate>> ShodroneUser" {
        class ShodroneUser <<entity>> <<root>> {
        }

        class ShodroneEmail <<value object>> <<id>> {
        }

        class PhoneNumber <<value object>> {
        }
    }

    package "<<aggregate>> SystemUser" {
        class SystemUser <<entity>> <<root>> {
        }

        class Username <<value object>> <<id>> {
        }

        class Password <<value object>> {
        }

        class Name <<value object>> {
        }

        class EmailAddress <<value object>> {
        }

        class RoleSet {
        }

        interface Set <<interface>> {
        }

        class RoleAssigment <<entity>> {
        }

        class Role <<value object>> {
        }
    }
}

package "Persistence" {
    class ShodroneUserRepository <<repository>> {
        +findAll() : Iterable<ShodroneUser>
    }
}

ListUsersUI --> ListUsersController
ListUsersController --> "*" ShodroneUser : users
ListUsersController --> ShodroneUserRepository : repo
ListUsersController --> ShodroneUserDTOParser : parser

ShodroneUserDTOParser --> ShodroneUserDTO : dto

ShodroneUser --> ShodroneEmail
ShodroneUser --> PhoneNumber
ShodroneUser --> SystemUser : has

SystemUser --> Username
SystemUser --> Password
SystemUser --> Name
SystemUser --> EmailAddress
SystemUser --> RoleSet
RoleSet ..|> Set
Set ..> RoleAssigment
RoleAssigment --> Role

@enduml
